<svg width="35" height="35" viewBox="0 0 35 35" xmlns="http://www.w3.org/2000/svg">
<path d="M27.192 21.6016H13.1694C12.9367 21.602 12.7109 21.5232 12.5289 21.3782C12.3469 21.2332 12.2196 21.0307 12.168 20.8038L9.80682 10.5171C9.77228 10.3668 9.77207 10.2107 9.80622 10.0604C9.84036 9.91001 9.90796 9.76929 10.004 9.64867C10.1001 9.52806 10.2221 9.43066 10.361 9.36371C10.4998 9.29677 10.652 9.26201 10.8062 9.26203H29.5552C29.7095 9.26171 29.862 9.29624 30.0011 9.36305C30.1403 9.42985 30.2625 9.52722 30.3588 9.64787C30.4551 9.76852 30.5229 9.90936 30.5571 10.0599C30.5914 10.2104 30.5912 10.3667 30.5566 10.5171L28.1914 20.8038C28.1398 21.0303 28.0128 21.2326 27.8313 21.3776C27.6497 21.5225 27.4243 21.6015 27.192 21.6016ZM13.9856 19.5508H26.3758L28.2673 11.3149H12.0934L13.9856 19.5508Z" fill="currentColor"/>
<path d="M15.1758 30.7617C14.3986 30.7617 13.6389 30.5313 12.9928 30.0995C12.3466 29.6678 11.843 29.0541 11.5456 28.3361C11.2482 27.6181 11.1703 26.8281 11.322 26.0659C11.4736 25.3037 11.8478 24.6035 12.3973 24.054C12.9468 23.5045 13.647 23.1303 14.4092 22.9786C15.1714 22.827 15.9615 22.9048 16.6794 23.2022C17.3974 23.4996 18.0111 24.0033 18.4428 24.6494C18.8746 25.2956 19.1051 26.0553 19.1051 26.8324C19.104 27.8742 18.6896 28.873 17.953 29.6097C17.2163 30.3463 16.2175 30.7606 15.1758 30.7617ZM15.1758 24.9546C14.8042 24.9546 14.441 25.0648 14.132 25.2712C13.8231 25.4777 13.5823 25.7711 13.4402 26.1144C13.298 26.4577 13.2608 26.8354 13.3334 27.1999C13.4059 27.5643 13.5849 27.899 13.8477 28.1617C14.1105 28.4244 14.4453 28.6032 14.8097 28.6756C15.1741 28.748 15.5519 28.7107 15.8951 28.5684C16.2384 28.4262 16.5317 28.1853 16.738 27.8763C16.9444 27.5673 17.0544 27.204 17.0543 26.8324C17.0537 26.3345 16.8556 25.857 16.5034 25.505C16.1512 25.1529 15.6737 24.955 15.1758 24.9546Z" fill="currentColor"/>
<path d="M25.1849 30.7617C24.4078 30.7617 23.6481 30.5313 23.0019 30.0995C22.3557 29.6678 21.8521 29.0541 21.5547 28.3361C21.2573 27.6181 21.1795 26.8281 21.3311 26.0659C21.4827 25.3037 21.857 24.6035 22.4065 24.054C22.956 23.5045 23.6561 23.1303 24.4183 22.9786C25.1806 22.827 25.9706 22.9048 26.6886 23.2022C27.4066 23.4996 28.0202 24.0033 28.452 24.6494C28.8838 25.2956 29.1142 26.0553 29.1142 26.8324C29.1131 27.8742 28.6988 28.873 27.9621 29.6097C27.2255 30.3463 26.2267 30.7606 25.1849 30.7617ZM25.1849 24.9546C24.8134 24.9546 24.4501 25.0648 24.1412 25.2712C23.8323 25.4777 23.5915 25.7711 23.4493 26.1144C23.3072 26.4577 23.27 26.8354 23.3425 27.1999C23.4151 27.5643 23.5941 27.899 23.8568 28.1617C24.1196 28.4244 24.4544 28.6032 24.8189 28.6756C25.1833 28.748 25.561 28.7107 25.9043 28.5684C26.2475 28.4262 26.5408 28.1853 26.7472 27.8763C26.9535 27.5673 27.0636 27.204 27.0634 26.8324C27.0629 26.3345 26.8648 25.857 26.5126 25.505C26.1604 25.1529 25.6829 24.955 25.1849 24.9546Z" fill="currentColor"/>
<path d="M10.8063 11.3128C10.591 11.3128 10.3812 11.245 10.2067 11.1191C10.0321 10.9933 9.90151 10.8156 9.8335 10.6114L8.07598 5.33203H4.83301C4.56106 5.33203 4.30025 5.224 4.10795 5.0317C3.91565 4.8394 3.80762 4.57859 3.80762 4.30664C3.80762 4.03469 3.91565 3.77388 4.10795 3.58158C4.30025 3.38928 4.56106 3.28125 4.83301 3.28125H8.81836C9.0336 3.28127 9.24337 3.34902 9.41796 3.4749C9.59255 3.60078 9.7231 3.77841 9.79111 3.98262L11.7824 9.96338C11.8338 10.1175 11.8477 10.2816 11.8232 10.4422C11.7987 10.6028 11.7364 10.7552 11.6414 10.887C11.5464 11.0188 11.4214 11.1261 11.2768 11.2001C11.1322 11.2742 10.9721 11.3128 10.8097 11.3128H10.8063Z" fill="currentColor"/>
</svg>
