<svg width="27" height="25" viewBox="0 0 27 25" xmlns="http://www.w3.org/2000/svg">
<path d="M13.5 0.375C13.0017 0.375 12.5036 0.544087 12.0976 0.883423L0.812926 10.3127C0.394566 10.6622 0.245654 11.2716 0.523466 11.7408C0.877294 12.338 1.66029 12.4547 2.16943 12.0292L13.3238 2.7099C13.426 2.62459 13.574 2.62459 13.6762 2.7099L24.8306 12.0303C25.0351 12.2014 25.283 12.2845 25.5302 12.2845C25.9103 12.2845 26.2874 12.0872 26.4958 11.7077C26.7501 11.244 26.6003 10.6582 26.1945 10.3192L24.4375 8.85049V4.20312C24.4375 3.59883 23.948 3.10938 23.3437 3.10938H22.25C21.6457 3.10938 21.1562 3.59883 21.1562 4.20312V6.10864L14.9024 0.883423C14.4964 0.544087 13.9983 0.375 13.5 0.375ZM13.5 4.75L2.5625 13.8856V21.7031C2.5625 23.213 3.78695 24.4375 5.29687 24.4375H21.7031C23.213 24.4375 24.4375 23.213 24.4375 21.7031V13.8856L13.5 4.75ZM11.3125 13.5H15.6875C16.2918 13.5 16.7812 13.9895 16.7812 14.5938V22.25H10.2187V14.5938C10.2187 13.9895 10.7082 13.5 11.3125 13.5Z" fill="currentColor"/>
</svg>
